<svg xmlns="http://www.w3.org/2000/svg" viewBox="0 0 922.88 257.58"><defs><style>.cls-1{fill:#219ebc;}.cls-2{fill:#023047;}</style></defs><title>webfishr-logo-4</title><g id="Layer_2" data-name="Layer 2"><g id="Layer_1-2" data-name="Layer 1"><path class="cls-1" d="M922.88,119.8l-5,5.65a332.64,332.64,0,0,1-23.9,23.9c-.27.27-.56.51-.83.78-2.61,2.37-5.25,4.68-7.94,7Q876,165,866.45,172.36a377.12,377.12,0,0,1-58.64,37.24,300.66,300.66,0,0,1-31.84,14c-2.74,1-5.43,2-8.18,3l-8.29,2.69c-2.74.95-5.59,1.56-8.36,2.34l-1.59.44c-2.26.61-4.55,1.21-6.84,1.69a225.24,225.24,0,0,1-34.25,5.36,202.44,202.44,0,0,1-34.48-.41c4.9-.37,9.77-.81,14.59-1.4,6.48-.7,12.89-1.64,19.24-2.93,2.8-.4,5.54-1.18,8.29-1.75s5.51-1.18,8.23-2l8.16-2.21,8-2.5c2.69-.81,5.33-1.78,8-2.75s5.3-1.83,7.91-2.93l7.83-3.07c2.58-1.07,5.14-2.26,7.7-3.36s5.11-2.31,7.64-3.53,5.09-2.39,7.56-3.74l7.48-3.82,7.35-4.06c9.8-5.49,19.35-11.38,28.71-17.57S849.14,168.3,858,161.43q9.19-7.1,18.08-14.58,4-3.39,7.91-6.86a3.65,3.65,0,0,0,.3-.27c4.11-3.64,8.21-7.3,12.13-11.09,2.24-2.13,4.5-4.31,6.71-6.49L894,115.85c-5.14-3.56-10.3-7.13-15.42-10.77-10.2-7.26-20.53-14.37-30.68-21.79l-15.23-11L817.55,61.06C807.49,53.58,797.48,46,787.6,38.18q16.54,9.09,32.78,18.62l16.22,9.56,16.12,9.71c10.8,6.41,21.37,13.14,32,19.7,5.36,3.28,10.66,6.62,16,10l15.88,10.06Z"/><path class="cls-1" d="M919,175l-6.19,4.33a328.74,328.74,0,0,1-29.73,18.35c-10.15,5.57-20.48,10.79-31.06,15.53A379.61,379.61,0,0,1,786.44,236a293.68,293.68,0,0,1-34.23,6.33c-2.88.35-5.73.72-8.64,1l-8.66.73c-2.88.29-5.81.24-8.69.37s-5.79.19-8.7.11a220.81,220.81,0,0,1-34.58-2.64,203.29,203.29,0,0,1-33.42-8.28,290.33,290.33,0,0,0,33.91,3.55c1.69.13,3.42.16,5.14.13,1.1,0,2.2,0,3.31.06,2.82,0,5.65.1,8.47-.06l8.43-.27,8.42-.62c2.8-.13,5.6-.48,8.4-.8s5.57-.59,8.34-1l8.34-1.21c2.42-.38,4.85-.86,7.27-1.29a9.13,9.13,0,0,1,1-.19c2.75-.49,5.49-1.08,8.24-1.7s5.49-1.16,8.2-1.88l8.16-2,8.1-2.26c10.79-3.1,21.45-6.65,32-10.52s20.91-8.24,31.13-12.87,20.32-9.6,30.22-14.91c5-2.66,9.88-5.35,14.72-8.2,2.67-1.56,5.36-3.15,8-4.79l-7.43-8.21-6.7-7.43c-2-2.21-3.9-4.38-5.84-6.59-1.08-1.21-2.15-2.45-3.23-3.66q4-3.39,7.91-6.86a3.65,3.65,0,0,0,.3-.27l3.15,3.15c2.18,2.15,4.33,4.3,6.48,6.48s4.52,4.58,6.76,6.89l13.13,13.46Z"/><path class="cls-2" d="M26.63,78.1l26.84,58.52L82.41,68.73l29.16,67.89L138.09,78.1h26.52L110.93,188.29l-28.52-66-28.84,66L0,78.1Z"/><path class="cls-2" d="M257.77,134.93H184.31q.94,12.63,8.21,20.1t18.63,7.37q8.83,0,14.63-4.21t12.94-15.57l20,11.15a80,80,0,0,1-9.79,13.53,52.15,52.15,0,0,1-11.05,9.26,44.3,44.3,0,0,1-12.74,5.31,61.57,61.57,0,0,1-14.84,1.69q-22.94,0-36.83-14.74t-13.9-39.36q0-24.32,13.47-39.37,13.59-14.84,36-14.84,22.64,0,35.79,14.42t13,39.68Zm-24.31-19.36q-5-18.94-23.89-18.95a24.5,24.5,0,0,0-8.11,1.32,23.26,23.26,0,0,0-6.89,3.78,24.3,24.3,0,0,0-5.32,6,27.73,27.73,0,0,0-3.36,7.9Z"/><path class="cls-2" d="M294.41,2.84V90q14.2-14.73,32.21-14.74a44.3,44.3,0,0,1,34.52,15.48q13.78,15.36,13.79,38.31,0,23.69-13.89,39.15T326.2,183.56q-17.79,0-31.79-13.68v10.73H270.73V2.84Zm56.31,127.25q0-14.73-8-24a25.63,25.63,0,0,0-20.31-9.47q-13.05,0-21.26,9.16T293,129.35q0,15,8,23.9,8,9.15,21,9.15a26.11,26.11,0,0,0,20.42-9.15Q350.72,144,350.72,130.09Z"/><path class="cls-2" d="M411.57,100.2v80.41H387.78V100.2h-8.42V78.1h8.42V38.52q0-19.37,6.74-27.36Q403.78,0,421.46,0q6.32,0,15.9,3.68V27.89l-2.43-1.26q-7.68-3.9-12.62-3.9-6.33,0-8.53,4.53t-2.21,17.05V78.1h25.79v22.1Z"/><rect class="cls-2" x="442.63" y="78.1" width="23.68" height="102.51"/><path class="cls-2" d="M543,95.57,523.37,106q-4.64-9.48-11.47-9.48a7.92,7.92,0,0,0-5.58,2.16A7.2,7.2,0,0,0,504,104.2q0,5.89,13.69,11.68,18.84,8.12,25.36,15t6.53,18.42a32.25,32.25,0,0,1-11,24.83Q528,183.56,513,183.56q-25.79,0-36.52-25.16L496.64,149q4.2,7.36,6.42,9.36a14.61,14.61,0,0,0,10.31,4q12,0,12-10.94,0-6.32-9.26-11.79c-2.39-1.19-4.77-2.35-7.16-3.48s-4.81-2.27-7.26-3.47q-10.32-5.06-14.53-10.1-5.36-6.42-5.36-16.53,0-13.36,9.15-22.1a32.15,32.15,0,0,1,22.74-8.74Q533.37,75.25,543,95.57Z"/><path class="cls-2" d="M557.9,2.84h23.69V86.62q12.63-11.37,27.89-11.37,17.37,0,27.78,11.27,8.85,9.78,8.84,31.26v62.83H622.42V120q0-12.31-4.36-17.84t-14-5.53q-12.42,0-17.48,7.68T581.59,131v49.57H557.9Z"/><path class="cls-2" d="M663.17,78.1h23.68v9.15q6.52-6.84,11.58-9.36a26.46,26.46,0,0,1,12.21-2.64q9.36,0,19.57,6.11L719.37,103q-6.74-4.85-13.15-4.84-19.37,0-19.37,29.26v53.15H663.17Z"/><path class="cls-1" d="M64,220.81l6.23,13.58L77,218.64l6.77,15.75,6.15-13.58H96L83.58,246.37,77,231.06l-6.69,15.31L57.85,220.81Z"/><path class="cls-1" d="M121.64,234h-17a7.21,7.21,0,0,0,1.9,4.67,5.82,5.82,0,0,0,4.32,1.71,5.65,5.65,0,0,0,3.4-1,13.91,13.91,0,0,0,3-3.61l4.64,2.58a18.16,18.16,0,0,1-2.27,3.14,11.94,11.94,0,0,1-2.57,2.15,10.24,10.24,0,0,1-3,1.23,14.38,14.38,0,0,1-3.44.39,11.19,11.19,0,0,1-8.55-3.41,12.87,12.87,0,0,1-3.22-9.13,13.17,13.17,0,0,1,3.13-9.14,11.91,11.91,0,0,1,16.65-.09q3,3.31,3,9.2ZM116,229.5c-.77-2.93-2.61-4.39-5.54-4.39a5.74,5.74,0,0,0-1.88.3,5.54,5.54,0,0,0-1.6.88,5.44,5.44,0,0,0-1.23,1.38,6.3,6.3,0,0,0-.79,1.83Z"/><path class="cls-1" d="M134.14,203.35v20.22a10.14,10.14,0,0,1,7.47-3.42,10.31,10.31,0,0,1,8,3.59,12.83,12.83,0,0,1,3.19,8.89,13.07,13.07,0,0,1-3.22,9.08,10.36,10.36,0,0,1-8.08,3.56,10.24,10.24,0,0,1-7.37-3.17v2.49h-5.49V203.35Zm13.06,29.52a8.18,8.18,0,0,0-1.86-5.56,5.92,5.92,0,0,0-4.71-2.2,6.33,6.33,0,0,0-4.93,2.12,7.9,7.9,0,0,0-1.88,5.47,8,8,0,0,0,1.86,5.54,6.14,6.14,0,0,0,4.88,2.13,6.07,6.07,0,0,0,4.74-2.13A7.83,7.83,0,0,0,147.2,232.87Z"/><path class="cls-1" d="M173.44,224.86l-4.54,2.42c-.71-1.46-1.6-2.2-2.66-2.2a1.83,1.83,0,0,0-1.29.5,1.7,1.7,0,0,0-.54,1.29c0,.91,1.06,1.81,3.17,2.71a18.81,18.81,0,0,1,5.89,3.46,5.93,5.93,0,0,1,1.51,4.27,7.51,7.51,0,0,1-2.54,5.77,8.65,8.65,0,0,1-5.95,2.19q-6,0-8.48-5.83l4.69-2.17a10.18,10.18,0,0,0,1.49,2.17,3.41,3.41,0,0,0,2.39.93c1.86,0,2.79-.85,2.79-2.54,0-1-.72-1.89-2.15-2.74l-1.66-.8-1.69-.81a10.36,10.36,0,0,1-3.37-2.34,5.76,5.76,0,0,1-1.24-3.83,6.8,6.8,0,0,1,2.12-5.13,7.47,7.47,0,0,1,5.28-2Q171.22,220.15,173.44,224.86Z"/><path class="cls-1" d="M180.08,210.92a3.4,3.4,0,0,1,1-2.49,3.58,3.58,0,1,1,5.06,5.06,3.39,3.39,0,0,1-2.52,1,3.47,3.47,0,0,1-2.54-1A3.5,3.5,0,0,1,180.08,210.92Zm6.33,9.89v23.78h-5.5V220.81Z"/><path class="cls-1" d="M200,225.94v18.65h-5.49V225.94h-2.35v-5.13h2.35v-8.72H200v8.72h4.27v5.13Z"/><path class="cls-1" d="M231.13,234h-17a7.22,7.22,0,0,0,1.91,4.67,5.79,5.79,0,0,0,4.32,1.71,5.64,5.64,0,0,0,3.39-1,13.91,13.91,0,0,0,3-3.61l4.64,2.58a18.16,18.16,0,0,1-2.27,3.14,12.14,12.14,0,0,1-2.56,2.15,10.3,10.3,0,0,1-3,1.23,14.38,14.38,0,0,1-3.44.39,11.16,11.16,0,0,1-8.54-3.41,12.83,12.83,0,0,1-3.23-9.13,13.17,13.17,0,0,1,3.13-9.14,11.91,11.91,0,0,1,16.65-.09q3,3.31,3,9.2Zm-5.64-4.49q-1.14-4.4-5.54-4.39a5.79,5.79,0,0,0-1.88.3,5.54,5.54,0,0,0-1.6.88,5.44,5.44,0,0,0-1.23,1.38,6.56,6.56,0,0,0-.78,1.83Z"/><path class="cls-1" d="M272.1,203.35h5.51v41.24H272.1V242.1a10.25,10.25,0,0,1-7.35,3.17,10.45,10.45,0,0,1-8.11-3.56,13.27,13.27,0,0,1-3.2-9.08,12.84,12.84,0,0,1,3.2-8.89,10.28,10.28,0,0,1,15.46-.17Zm-13,29.28a8.26,8.26,0,0,0,1.83,5.56,6,6,0,0,0,4.74,2.18,6.32,6.32,0,0,0,4.93-2.1,9,9,0,0,0,0-11,6.24,6.24,0,0,0-4.89-2.12,6,6,0,0,0-4.73,2.15A7.89,7.89,0,0,0,259.06,232.63Z"/><path class="cls-1" d="M307.2,234h-17a7.22,7.22,0,0,0,1.91,4.67,5.79,5.79,0,0,0,4.32,1.71,5.64,5.64,0,0,0,3.39-1,13.91,13.91,0,0,0,3-3.61l4.64,2.58a17.65,17.65,0,0,1-2.27,3.14,12.14,12.14,0,0,1-2.56,2.15,10.3,10.3,0,0,1-3,1.23,14.32,14.32,0,0,1-3.44.39,11.16,11.16,0,0,1-8.54-3.41,12.83,12.83,0,0,1-3.23-9.13,13.17,13.17,0,0,1,3.13-9.14,11.91,11.91,0,0,1,16.65-.09q3,3.31,3,9.2Zm-5.64-4.49q-1.14-4.4-5.54-4.39a5.79,5.79,0,0,0-1.88.3,5.54,5.54,0,0,0-1.6.88,5.44,5.44,0,0,0-1.23,1.38,6.56,6.56,0,0,0-.78,1.83Z"/><path class="cls-1" d="M328,224.86l-4.54,2.42c-.72-1.46-1.61-2.2-2.66-2.2a1.85,1.85,0,0,0-1.3.5,1.7,1.7,0,0,0-.54,1.29c0,.91,1.06,1.81,3.18,2.71a18.85,18.85,0,0,1,5.88,3.46,5.93,5.93,0,0,1,1.52,4.27,7.51,7.51,0,0,1-2.54,5.77,8.67,8.67,0,0,1-6,2.19q-6,0-8.47-5.83l4.69-2.17a10.26,10.26,0,0,0,1.48,2.17,3.41,3.41,0,0,0,2.4.93c1.85,0,2.78-.85,2.78-2.54,0-1-.72-1.89-2.15-2.74l-1.66-.8-1.68-.81a10.25,10.25,0,0,1-3.37-2.34,5.77,5.77,0,0,1-1.25-3.83,6.77,6.77,0,0,1,2.13-5.13,7.45,7.45,0,0,1,5.27-2C324.28,220.15,326.55,221.72,328,224.86Z"/><path class="cls-1" d="M334.67,210.92a3.59,3.59,0,0,1,3.56-3.54,3.47,3.47,0,0,1,2.54,1.05,3.4,3.4,0,0,1,1.05,2.52,3.47,3.47,0,0,1-1.05,2.54,3.37,3.37,0,0,1-2.52,1,3.44,3.44,0,0,1-2.53-1A3.5,3.5,0,0,1,334.67,210.92Zm6.32,9.89v23.78H335.5V220.81Z"/><path class="cls-1" d="M372,244c0,1.12,0,2.11-.11,3a22.13,22.13,0,0,1-.31,2.26,10.18,10.18,0,0,1-2.29,4.62,11.15,11.15,0,0,1-8.87,3.71,11.86,11.86,0,0,1-7.83-2.56,10.51,10.51,0,0,1-3.67-7.3h5.52a6.24,6.24,0,0,0,1.05,2.71,5.9,5.9,0,0,0,5,2.22q6,0,6-7.4v-3.32a10.48,10.48,0,0,1-15.5-.17,13.06,13.06,0,0,1-3.13-8.91,13.71,13.71,0,0,1,2.91-8.84,10.09,10.09,0,0,1,8.25-3.86,9.57,9.57,0,0,1,7.47,3.35v-2.69H372Zm-5.28-11.28a8,8,0,0,0-1.85-5.54,6.14,6.14,0,0,0-4.81-2.13,5.91,5.91,0,0,0-4.93,2.32,9.55,9.55,0,0,0,0,10.7,5.92,5.92,0,0,0,4.93,2.27,6,6,0,0,0,5-2.3A8.18,8.18,0,0,0,366.67,232.75Z"/><path class="cls-1" d="M379.88,220.81h5.52V223a9,9,0,0,1,6.49-2.86,8.21,8.21,0,0,1,6.47,2.61c1.33,1.49,2,3.9,2,7.26v14.57h-5.51V231.31c0-2.34-.33-4-1-4.86s-1.79-1.37-3.47-1.37a4.25,4.25,0,0,0-3.88,1.81c-.75,1.19-1.12,3.26-1.12,6.23v11.47h-5.52Z"/><path class="cls-1" d="M443.23,221.84v7.3a13.22,13.22,0,0,0-3.37-3.15,6.5,6.5,0,0,0-3.44-.88,6.77,6.77,0,0,0-5.15,2.17,7.61,7.61,0,0,0-2,5.45,7.78,7.78,0,0,0,2,5.49,6.66,6.66,0,0,0,5.1,2.15,7,7,0,0,0,3.49-.86,13.63,13.63,0,0,0,3.44-3.22v7.25a14.37,14.37,0,0,1-6.69,1.73,12.79,12.79,0,0,1-9.23-3.56,11.9,11.9,0,0,1-3.71-8.91,12.1,12.1,0,0,1,3.76-9,12.74,12.74,0,0,1,9.23-3.66A13.69,13.69,0,0,1,443.23,221.84Z"/><path class="cls-1" d="M448.43,232.53a11.79,11.79,0,0,1,3.69-8.76,13,13,0,0,1,18,0,12.74,12.74,0,0,1,0,17.9,12.59,12.59,0,0,1-9.1,3.58,12.06,12.06,0,0,1-9-3.66A12.31,12.31,0,0,1,448.43,232.53Zm5.62.1a8,8,0,0,0,1.9,5.64,7.39,7.39,0,0,0,10.3,0,8.92,8.92,0,0,0,0-11.08,7.3,7.3,0,0,0-10.25,0A7.64,7.64,0,0,0,454.05,232.63Z"/><path class="cls-1" d="M480.61,220.81h5.49V223a11.43,11.43,0,0,1,2.71-2.25,6.67,6.67,0,0,1,3-.61,7.3,7.3,0,0,1,6.38,3.52,8.23,8.23,0,0,1,7-3.52q8,0,8,9.74v14.7h-5.52V231.38a10.2,10.2,0,0,0-.83-4.83,3,3,0,0,0-2.81-1.44,3.59,3.59,0,0,0-3.31,1.71,11,11,0,0,0-1,5.49v12.28h-5.51V231.46c0-4.24-1.22-6.35-3.67-6.35a3.69,3.69,0,0,0-3.38,1.73,10.92,10.92,0,0,0-1.06,5.47v12.28h-5.49Z"/><path class="cls-1" d="M527.26,257.53h-5.49V220.81h5.49v2.59a10.17,10.17,0,0,1,7.38-3.25,10.29,10.29,0,0,1,8.08,3.62,13,13,0,0,1,3.22,9,12.84,12.84,0,0,1-3.2,8.91,10.43,10.43,0,0,1-15.48.2Zm13.06-24.68a8.2,8.2,0,0,0-1.85-5.57,6,6,0,0,0-4.74-2.17,6.25,6.25,0,0,0-4.9,2.1,7.93,7.93,0,0,0-1.88,5.52,8.08,8.08,0,0,0,1.88,5.51,6.14,6.14,0,0,0,4.88,2.13,6,6,0,0,0,4.71-2.15A7.79,7.79,0,0,0,540.32,232.85Z"/><path class="cls-1" d="M570.28,220.81h5.52v23.78h-5.52V242.1a10.55,10.55,0,0,1-15.45-.39,13.22,13.22,0,0,1-3.2-9.08,12.79,12.79,0,0,1,3.2-8.91,10.29,10.29,0,0,1,8-3.57,10.12,10.12,0,0,1,7.45,3.42Zm-13,11.82a8.26,8.26,0,0,0,1.83,5.56,6,6,0,0,0,4.74,2.18,6.3,6.3,0,0,0,4.93-2.1,9,9,0,0,0,0-11,6.22,6.22,0,0,0-4.88-2.12,6.05,6.05,0,0,0-4.74,2.15A7.94,7.94,0,0,0,557.24,232.63Z"/><path class="cls-1" d="M583.73,220.81h5.52V223a9,9,0,0,1,6.49-2.86,8.19,8.19,0,0,1,6.47,2.61c1.34,1.49,2,3.9,2,7.26v14.57H598.7V231.31c0-2.34-.33-4-1-4.86s-1.79-1.37-3.47-1.37a4.26,4.26,0,0,0-3.88,1.81c-.75,1.19-1.12,3.26-1.12,6.23v11.47h-5.52Z"/><path class="cls-1" d="M618.84,240.17l-10.7-19.36h6.38l7.27,13.67,6.79-13.67h6.2l-18.95,36.72h-6.27Z"/></g></g></svg>