<svg xmlns="http://www.w3.org/2000/svg" viewBox="0 0 826.58 206.41"><defs><style>.cls-1{fill:#219ebc;}.cls-2{fill:#023047;}</style></defs><title>webfishr-logo</title><g id="Layer_2" data-name="Layer 2"><g id="Layer_1-2" data-name="Layer 1"><path class="cls-1" d="M826.58,81.62l-5,5.65a332.51,332.51,0,0,1-23.89,23.9c-.27.27-.57.51-.84.78-2.61,2.37-5.24,4.68-7.94,7q-9.15,7.9-18.73,15.26a378.25,378.25,0,0,1-58.63,37.24,298.56,298.56,0,0,1-31.84,14c-2.74,1-5.44,2.05-8.18,3l-8.29,2.69c-2.74.94-5.6,1.56-8.37,2.34-.54.14-1.05.3-1.59.43-2.26.62-4.54,1.21-6.83,1.7a223.91,223.91,0,0,1-34.26,5.35,201.29,201.29,0,0,1-34.47-.4c4.9-.38,9.77-.81,14.58-1.4,6.49-.7,12.89-1.64,19.25-2.93,2.79-.41,5.54-1.19,8.28-1.75s5.52-1.19,8.24-2l8.15-2.21,8.05-2.5c2.69-.81,5.33-1.78,8-2.75s5.31-1.83,7.92-2.93l7.83-3.07c2.58-1.08,5.14-2.26,7.69-3.36s5.12-2.32,7.65-3.53,5.08-2.39,7.56-3.74l7.48-3.82,7.35-4.06c9.79-5.49,19.35-11.39,28.71-17.58s18.46-12.81,27.34-19.67q9.21-7.09,18.09-14.58,4-3.39,7.91-6.87a1.82,1.82,0,0,0,.29-.27c4.12-3.63,8.21-7.29,12.14-11.08,2.23-2.13,4.49-4.31,6.7-6.49l-9.12-6.3c-5.14-3.55-10.31-7.13-15.42-10.76-10.2-7.27-20.53-14.37-30.68-21.8l-15.23-11-15.15-11.2C711.18,15.39,701.17,7.8,691.3,0q16.55,9.07,32.77,18.62l16.23,9.56,16.12,9.71c10.79,6.41,21.37,13.13,32.05,19.7,5.36,3.28,10.66,6.62,16,10l15.88,10.07Z"/><path class="cls-1" d="M822.73,136.81l-6.19,4.34A331.16,331.16,0,0,1,786.8,159.5c-10.14,5.57-20.48,10.79-31,15.53a380.45,380.45,0,0,1-65.61,22.79,293.68,293.68,0,0,1-34.23,6.33c-2.88.35-5.73.72-8.64,1l-8.67.72c-2.87.3-5.81.25-8.69.38s-5.78.19-8.69.11a221.93,221.93,0,0,1-34.58-2.64,203.06,203.06,0,0,1-33.42-8.29,288,288,0,0,0,33.9,3.56c1.7.13,3.42.16,5.14.13,1.11,0,2.21,0,3.31.05,2.83,0,5.66.11,8.48-.05l8.42-.27,8.43-.62c2.8-.13,5.59-.48,8.39-.81s5.57-.59,8.35-1l8.34-1.22c2.42-.37,4.84-.86,7.26-1.29.35-.08.68-.13,1-.19,2.74-.48,5.49-1.07,8.23-1.69s5.49-1.16,8.21-1.88l8.15-2,8.1-2.26c10.79-3.1,21.45-6.65,32-10.53s20.91-8.23,31.14-12.86,20.32-9.61,30.22-14.91c5-2.66,9.88-5.35,14.72-8.21,2.66-1.56,5.36-3.14,8-4.79l-7.42-8.2q-3.36-3.72-6.71-7.43c-2-2.21-3.9-4.39-5.83-6.59l-3.23-3.66q4-3.39,7.91-6.87a1.82,1.82,0,0,0,.29-.27l3.15,3.15c2.18,2.16,4.33,4.31,6.49,6.49s4.52,4.57,6.75,6.89l13.13,13.45Z"/><path class="cls-2" d="M21.27,40.23,55.07,127,90.39,33.92,124.19,127l35.9-86.77h21.28l-58,138.06L90,86.3,55.16,178.37,0,40.23Z"/><path class="cls-2" d="M244.69,133.56H186q.75,10.08,6.55,16.06t14.89,5.88a19.34,19.34,0,0,0,11.68-3.36q4.55-3.36,10.35-12.44l16,8.91a62.79,62.79,0,0,1-7.82,10.8,41.26,41.26,0,0,1-8.83,7.4,35.36,35.36,0,0,1-10.17,4.25,49.9,49.9,0,0,1-11.86,1.34q-18.33,0-29.43-11.77t-11.09-31.44q0-19.43,10.76-31.45,10.85-11.85,28.76-11.86,18.07,0,28.58,11.52t10.43,31.7Zm-19.42-15.47Q221.33,103,206.19,103a19.65,19.65,0,0,0-6.48,1,18.52,18.52,0,0,0-5.51,3,19.14,19.14,0,0,0-4.24,4.75,21.77,21.77,0,0,0-2.69,6.31Z"/><path class="cls-2" d="M270.52,28V97.65q11.36-11.76,25.73-11.77a35.4,35.4,0,0,1,27.58,12.36q11,12.29,11,30.61,0,18.92-11.1,31.28T295.92,172.4q-14.22,0-25.4-10.93v8.58H251.6V28Zm45,101.66q0-11.77-6.39-19.17A20.47,20.47,0,0,0,292.89,103a21.77,21.77,0,0,0-17,7.32q-6.47,7.23-6.47,18.83,0,11.94,6.39,19.09,6.39,7.32,16.82,7.31A20.85,20.85,0,0,0,309,148.19Q315.51,140.79,315.51,129.69Z"/><path class="cls-2" d="M409.53,58.64H364.29v31.2h43.64v18.41H364.29v61.8H344.7V40.23h64.83Z"/><path class="cls-2" d="M412.31,54.1a12.34,12.34,0,0,1,12.28-12.19,11.9,11.9,0,0,1,8.74,3.61A11.67,11.67,0,0,1,437,54.18a11.93,11.93,0,0,1-3.62,8.75,11.62,11.62,0,0,1-8.66,3.61A12.34,12.34,0,0,1,412.31,54.1Zm21.78,34.05v81.9H415.17V88.15Z"/><path class="cls-2" d="M491.87,102.11l-15.64,8.33q-3.71-7.57-9.16-7.57a6.3,6.3,0,0,0-4.46,1.72,5.78,5.78,0,0,0-1.85,4.42q0,4.71,10.93,9.33,15.06,6.48,20.26,11.94T497.17,145a25.8,25.8,0,0,1-8.75,19.85,29.77,29.77,0,0,1-20.51,7.56q-20.61,0-29.18-20.09l16.14-7.48q3.38,5.88,5.13,7.48a11.71,11.71,0,0,0,8.24,3.19q9.58,0,9.59-8.74,0-5-7.4-9.42c-1.91-1-3.81-1.88-5.72-2.77s-3.84-1.82-5.8-2.78q-8.24-4-11.6-8.07-4.29-5.13-4.29-13.2a23.4,23.4,0,0,1,7.31-17.66,25.69,25.69,0,0,1,18.17-7Q484.22,85.88,491.87,102.11Z"/><path class="cls-2" d="M500.38,28H519.3V95q10.08-9.08,22.28-9.08,13.88,0,22.2,9,7.05,7.82,7.06,25v50.2H551.92V121.62q0-9.84-3.49-14.25T537.2,103q-9.91,0-14,6.14t-4,21.36v39.6H500.38Z"/><path class="cls-2" d="M581,88.15h18.91v7.32Q605.16,90,609.19,88a21.25,21.25,0,0,1,9.76-2.1q7.49,0,15.64,4.88l-8.66,17.32q-5.38-3.87-10.51-3.87-15.48,0-15.48,23.38v42.46H581Z"/></g></g></svg>