<svg xmlns="http://www.w3.org/2000/svg" viewBox="0 0 892.88 233.05"><defs><style>.cls-1{fill:#219ebc;}.cls-2{fill:#023047;}</style></defs><title>webfishr-logo-2</title><g id="Layer_2" data-name="Layer 2"><g id="Layer_1-2" data-name="Layer 1"><path class="cls-1" d="M892.88,108.26l-5,5.65a332.64,332.64,0,0,1-23.9,23.9c-.27.27-.56.51-.83.78-2.61,2.37-5.25,4.68-7.94,7q-9.16,7.91-18.73,15.26a378.61,378.61,0,0,1-58.64,37.24,298.56,298.56,0,0,1-31.84,14c-2.74,1-5.43,2-8.18,3l-8.29,2.69c-2.74.94-5.59,1.56-8.36,2.34-.54.14-1,.3-1.59.43-2.26.62-4.55,1.21-6.84,1.7a224,224,0,0,1-34.25,5.35,201.42,201.42,0,0,1-34.48-.4c4.9-.38,9.77-.81,14.59-1.4,6.48-.7,12.89-1.64,19.24-2.93,2.8-.41,5.54-1.19,8.29-1.75s5.51-1.19,8.23-2l8.16-2.21,8-2.5c2.69-.81,5.33-1.78,8-2.75s5.3-1.83,7.91-2.93l7.83-3.07c2.58-1.08,5.14-2.26,7.7-3.36s5.11-2.32,7.64-3.53,5.09-2.39,7.56-3.74l7.48-3.82,7.35-4.06c9.8-5.49,19.35-11.39,28.71-17.58s18.46-12.81,27.35-19.67c6.13-4.74,12.16-9.58,18.08-14.58,2.66-2.27,5.3-4.55,7.91-6.87a2.44,2.44,0,0,0,.3-.27c4.11-3.63,8.21-7.29,12.13-11.08,2.24-2.13,4.5-4.31,6.71-6.49L864,104.3c-5.14-3.55-10.3-7.13-15.42-10.76-10.2-7.27-20.53-14.37-30.68-21.8l-15.23-11-15.15-11.2C777.49,42,767.48,34.44,757.6,26.64q16.54,9.07,32.78,18.62l16.22,9.55,16.12,9.72c10.8,6.4,21.37,13.13,32,19.7,5.36,3.28,10.66,6.62,16,10l15.88,10.07Z"/><path class="cls-1" d="M889,163.45l-6.19,4.34a331,331,0,0,1-29.73,18.35c-10.15,5.57-20.48,10.79-31.06,15.53a380.45,380.45,0,0,1-65.61,22.79,293.65,293.65,0,0,1-34.23,6.32c-2.88.35-5.73.73-8.64,1l-8.66.72c-2.88.3-5.81.25-8.69.38s-5.79.19-8.7.11a222,222,0,0,1-34.58-2.64,203.31,203.31,0,0,1-33.42-8.29,288.18,288.18,0,0,0,33.91,3.55c1.69.14,3.42.17,5.14.14,1.1,0,2.2,0,3.31.05,2.82,0,5.65.11,8.47-.05l8.43-.27,8.42-.62c2.8-.13,5.6-.48,8.4-.81s5.57-.59,8.34-1.05l8.34-1.21c2.42-.37,4.85-.86,7.27-1.29.35-.08.67-.13,1-.19,2.75-.48,5.49-1.07,8.24-1.69s5.49-1.16,8.2-1.89l8.16-2,8.1-2.26c10.79-3.1,21.45-6.65,32-10.53s20.91-8.23,31.13-12.86,20.32-9.61,30.22-14.91c5-2.66,9.88-5.35,14.72-8.21,2.67-1.56,5.36-3.15,8-4.79l-7.43-8.2-6.7-7.43c-2-2.21-3.9-4.39-5.84-6.6-1.08-1.21-2.15-2.44-3.23-3.65,2.66-2.27,5.3-4.55,7.91-6.87a2.44,2.44,0,0,0,.3-.27l3.15,3.15c2.18,2.16,4.33,4.31,6.48,6.49s4.52,4.57,6.76,6.89l13.13,13.45Z"/><path class="cls-2" d="M26.63,78.1l26.84,58.52L82.41,68.73l29.16,67.89L138.09,78.1h26.52L110.93,188.29l-28.52-66-28.84,66L0,78.1Z"/><path class="cls-2" d="M257.77,134.93H184.31q.94,12.63,8.21,20.1t18.63,7.37q8.83,0,14.63-4.21t12.94-15.57l20,11.15a80,80,0,0,1-9.79,13.53,52.15,52.15,0,0,1-11.05,9.26,44.3,44.3,0,0,1-12.74,5.31,61.57,61.57,0,0,1-14.84,1.69q-22.94,0-36.83-14.74t-13.9-39.36q0-24.32,13.47-39.37,13.59-14.84,36-14.84,22.64,0,35.79,14.42t13,39.68Zm-24.31-19.36q-5-18.94-23.89-18.95a24.5,24.5,0,0,0-8.11,1.32,23.26,23.26,0,0,0-6.89,3.78,24.3,24.3,0,0,0-5.32,6,27.73,27.73,0,0,0-3.36,7.9Z"/><path class="cls-2" d="M294.41,2.84V90q14.2-14.73,32.21-14.74a44.3,44.3,0,0,1,34.52,15.48q13.78,15.36,13.79,38.31,0,23.69-13.89,39.15T326.2,183.56q-17.79,0-31.79-13.68v10.73H270.73V2.84Zm56.31,127.25q0-14.73-8-24a25.63,25.63,0,0,0-20.31-9.47q-13.05,0-21.26,9.16T293,129.35q0,15,8,23.9,8,9.15,21,9.15a26.11,26.11,0,0,0,20.42-9.15Q350.72,144,350.72,130.09Z"/><path class="cls-2" d="M411.57,100.2v80.41H387.78V100.2h-8.42V78.1h8.42V38.52q0-19.37,6.74-27.36Q403.78,0,421.46,0q6.32,0,15.9,3.68V27.89l-2.43-1.26q-7.68-3.9-12.62-3.9-6.33,0-8.53,4.53t-2.21,17.05V78.1h25.79v22.1Z"/><path class="cls-1" d="M439.05,35.47a15.45,15.45,0,0,1,15.37-15.26,14.91,14.91,0,0,1,10.94,4.52,14.58,14.58,0,0,1,4.53,10.84,14.9,14.9,0,0,1-4.53,11,14.55,14.55,0,0,1-10.84,4.53,14.88,14.88,0,0,1-10.94-4.53A15,15,0,0,1,439.05,35.47Z"/><rect class="cls-2" x="442.63" y="78.1" width="23.68" height="102.51"/><path class="cls-2" d="M543,95.57,523.37,106q-4.64-9.48-11.47-9.48a7.92,7.92,0,0,0-5.58,2.16A7.2,7.2,0,0,0,504,104.2q0,5.89,13.69,11.68,18.84,8.12,25.36,15t6.53,18.42a32.25,32.25,0,0,1-11,24.83Q528,183.56,513,183.56q-25.79,0-36.52-25.16L496.64,149q4.2,7.36,6.42,9.36a14.61,14.61,0,0,0,10.31,4q12,0,12-10.94,0-6.32-9.26-11.79c-2.39-1.19-4.77-2.35-7.16-3.48s-4.81-2.27-7.26-3.47q-10.32-5.06-14.53-10.1-5.36-6.42-5.36-16.53,0-13.36,9.15-22.1a32.15,32.15,0,0,1,22.74-8.74Q533.37,75.25,543,95.57Z"/><path class="cls-2" d="M557.9,2.84h23.69V86.62q12.63-11.37,27.89-11.37,17.37,0,27.78,11.27,8.85,9.78,8.84,31.26v62.83H622.42V120q0-12.31-4.36-17.84t-14-5.53q-12.42,0-17.48,7.68T581.59,131v49.57H557.9Z"/><path class="cls-2" d="M663.17,78.1h23.68v9.15q6.52-6.84,11.58-9.36a26.46,26.46,0,0,1,12.21-2.64q9.36,0,19.57,6.11L719.37,103q-6.74-4.85-13.15-4.84-19.37,0-19.37,29.26v53.15H663.17Z"/></g></g></svg>