<svg xmlns="http://www.w3.org/2000/svg" viewBox="0 0 892.88 244.59"><defs><style>.cls-1{fill:#219ebc;}.cls-2{fill:#023047;}</style></defs><title>webfishr-logo-3</title><g id="Layer_2" data-name="Layer 2"><g id="Layer_1-2" data-name="Layer 1"><path class="cls-1" d="M892.88,119.8l-5,5.65a332.64,332.64,0,0,1-23.9,23.9c-.27.27-.56.51-.83.78-2.61,2.37-5.25,4.68-7.94,7Q846,165,836.45,172.36a377.12,377.12,0,0,1-58.64,37.24,300.66,300.66,0,0,1-31.84,14c-2.74,1-5.43,2-8.18,3l-8.29,2.69c-2.74.95-5.59,1.56-8.36,2.34l-1.59.44c-2.26.61-4.55,1.21-6.84,1.69a225.24,225.24,0,0,1-34.25,5.36,202.44,202.44,0,0,1-34.48-.41c4.9-.37,9.77-.81,14.59-1.4,6.48-.7,12.89-1.64,19.24-2.93,2.8-.4,5.54-1.18,8.29-1.75s5.51-1.18,8.23-2l8.16-2.21,8-2.5c2.69-.81,5.33-1.78,8-2.75s5.3-1.83,7.91-2.93l7.83-3.07c2.58-1.07,5.14-2.26,7.7-3.36s5.11-2.31,7.64-3.53,5.09-2.39,7.56-3.74l7.48-3.82,7.35-4.06c9.8-5.49,19.35-11.38,28.71-17.57S819.14,168.3,828,161.43q9.19-7.1,18.08-14.58,4-3.39,7.91-6.86a3.65,3.65,0,0,0,.3-.27c4.11-3.64,8.21-7.3,12.13-11.09,2.24-2.13,4.5-4.31,6.71-6.49L864,115.85c-5.14-3.56-10.3-7.13-15.42-10.77-10.2-7.26-20.53-14.37-30.68-21.79l-15.23-11L787.55,61.06C777.49,53.58,767.48,46,757.6,38.18q16.54,9.09,32.78,18.62l16.22,9.56,16.12,9.71c10.8,6.41,21.37,13.14,32,19.7,5.36,3.28,10.66,6.62,16,10l15.88,10.06Z"/><path class="cls-1" d="M889,175l-6.19,4.33a328.74,328.74,0,0,1-29.73,18.35c-10.15,5.57-20.48,10.79-31.06,15.53A379.61,379.61,0,0,1,756.44,236a293.68,293.68,0,0,1-34.23,6.33c-2.88.35-5.73.72-8.64,1l-8.66.73c-2.88.29-5.81.24-8.69.37s-5.79.19-8.7.11a220.81,220.81,0,0,1-34.58-2.64,203.29,203.29,0,0,1-33.42-8.28,290.33,290.33,0,0,0,33.91,3.55c1.69.13,3.42.16,5.14.13,1.1,0,2.2,0,3.31.06,2.82,0,5.65.1,8.47-.06l8.43-.27,8.42-.62c2.8-.13,5.6-.48,8.4-.8s5.57-.59,8.34-1l8.34-1.21c2.42-.38,4.85-.86,7.27-1.29a9.13,9.13,0,0,1,1-.19c2.75-.49,5.49-1.08,8.24-1.7s5.49-1.16,8.2-1.88l8.16-2,8.1-2.26c10.79-3.1,21.45-6.65,32-10.52s20.91-8.24,31.13-12.87,20.32-9.6,30.22-14.91c5-2.66,9.88-5.35,14.72-8.2,2.67-1.56,5.36-3.15,8-4.79l-7.43-8.21-6.7-7.43c-2-2.21-3.9-4.38-5.84-6.59-1.08-1.21-2.15-2.45-3.23-3.66q4-3.39,7.91-6.86a3.65,3.65,0,0,0,.3-.27l3.15,3.15c2.18,2.15,4.33,4.3,6.48,6.48s4.52,4.58,6.76,6.89l13.13,13.46Z"/><path class="cls-2" d="M26.63,78.1l26.84,58.52L82.41,68.73l29.16,67.89L138.09,78.1h26.52L110.93,188.29l-28.52-66-28.84,66L0,78.1Z"/><path class="cls-2" d="M257.77,134.93H184.31q.94,12.63,8.21,20.1t18.63,7.37q8.83,0,14.63-4.21t12.94-15.57l20,11.15a80,80,0,0,1-9.79,13.53,52.15,52.15,0,0,1-11.05,9.26,44.3,44.3,0,0,1-12.74,5.31,61.57,61.57,0,0,1-14.84,1.69q-22.94,0-36.83-14.74t-13.9-39.36q0-24.32,13.47-39.37,13.59-14.84,36-14.84,22.64,0,35.79,14.42t13,39.68Zm-24.31-19.36q-5-18.94-23.89-18.95a24.5,24.5,0,0,0-8.11,1.32,23.26,23.26,0,0,0-6.89,3.78,24.3,24.3,0,0,0-5.32,6,27.73,27.73,0,0,0-3.36,7.9Z"/><path class="cls-2" d="M294.41,2.84V90q14.2-14.73,32.21-14.74a44.3,44.3,0,0,1,34.52,15.48q13.78,15.36,13.79,38.31,0,23.69-13.89,39.15T326.2,183.56q-17.79,0-31.79-13.68v10.73H270.73V2.84Zm56.31,127.25q0-14.73-8-24a25.63,25.63,0,0,0-20.31-9.47q-13.05,0-21.26,9.16T293,129.35q0,15,8,23.9,8,9.15,21,9.15a26.11,26.11,0,0,0,20.42-9.15Q350.72,144,350.72,130.09Z"/><path class="cls-2" d="M411.57,100.2v80.41H387.78V100.2h-8.42V78.1h8.42V38.52q0-19.37,6.74-27.36Q403.78,0,421.46,0q6.32,0,15.9,3.68V27.89l-2.43-1.26q-7.68-3.9-12.62-3.9-6.33,0-8.53,4.53t-2.21,17.05V78.1h25.79v22.1Z"/><rect class="cls-2" x="442.63" y="78.1" width="23.68" height="102.51"/><path class="cls-2" d="M543,95.57,523.37,106q-4.64-9.48-11.47-9.48a7.92,7.92,0,0,0-5.58,2.16A7.2,7.2,0,0,0,504,104.2q0,5.89,13.69,11.68,18.84,8.12,25.36,15t6.53,18.42a32.25,32.25,0,0,1-11,24.83Q528,183.56,513,183.56q-25.79,0-36.52-25.16L496.64,149q4.2,7.36,6.42,9.36a14.61,14.61,0,0,0,10.31,4q12,0,12-10.94,0-6.32-9.26-11.79c-2.39-1.19-4.77-2.35-7.16-3.48s-4.81-2.27-7.26-3.47q-10.32-5.06-14.53-10.1-5.36-6.42-5.36-16.53,0-13.36,9.15-22.1a32.15,32.15,0,0,1,22.74-8.74Q533.37,75.25,543,95.57Z"/><path class="cls-2" d="M557.9,2.84h23.69V86.62q12.63-11.37,27.89-11.37,17.37,0,27.78,11.27,8.85,9.78,8.84,31.26v62.83H622.42V120q0-12.31-4.36-17.84t-14-5.53q-12.42,0-17.48,7.68T581.59,131v49.57H557.9Z"/><path class="cls-2" d="M663.17,78.1h23.68v9.15q6.52-6.84,11.58-9.36a26.46,26.46,0,0,1,12.21-2.64q9.36,0,19.57,6.11L719.37,103q-6.74-4.85-13.15-4.84-19.37,0-19.37,29.26v53.15H663.17Z"/><path class="cls-2" d="M122.73,214l5,10.86,5.37-12.59,5.41,12.59L143.41,214h4.93l-10,20.45-5.3-12.24-5.35,12.24L117.79,214Z"/><path class="cls-2" d="M168.82,224.57H155.19a5.83,5.83,0,0,0,1.52,3.73,4.67,4.67,0,0,0,3.46,1.37,4.51,4.51,0,0,0,2.72-.78,11.3,11.3,0,0,0,2.4-2.89l3.71,2.07a14.9,14.9,0,0,1-1.82,2.51,9.92,9.92,0,0,1-2.05,1.72,8.47,8.47,0,0,1-2.36,1,11.47,11.47,0,0,1-2.75.31,9,9,0,0,1-6.84-2.73,10.25,10.25,0,0,1-2.58-7.3,10.53,10.53,0,0,1,2.5-7.31,9.54,9.54,0,0,1,13.32-.08c1.62,1.77,2.42,4.23,2.42,7.37ZM164.31,221a4.21,4.21,0,0,0-4.43-3.52,4.39,4.39,0,0,0-1.51.25,4.4,4.4,0,0,0-2.26,1.8,5.44,5.44,0,0,0-.63,1.47Z"/><path class="cls-2" d="M178.82,200.06v16.17a8.12,8.12,0,0,1,6-2.73,8.22,8.22,0,0,1,6.41,2.87,10.27,10.27,0,0,1,2.55,7.11,10.43,10.43,0,0,1-2.57,7.26,8.32,8.32,0,0,1-6.47,2.85,8.22,8.22,0,0,1-5.9-2.53v2h-4.39v-33Zm10.45,23.61a6.55,6.55,0,0,0-1.48-4.45,4.76,4.76,0,0,0-3.77-1.76,5.07,5.07,0,0,0-4,1.7,6.33,6.33,0,0,0-1.5,4.38,6.41,6.41,0,0,0,1.48,4.43,5,5,0,0,0,3.91,1.7,4.86,4.86,0,0,0,3.79-1.7A6.28,6.28,0,0,0,189.27,223.67Z"/><path class="cls-2" d="M210.27,217.27l-3.64,1.93c-.57-1.17-1.28-1.76-2.12-1.76a1.5,1.5,0,0,0-1,.4,1.34,1.34,0,0,0-.43,1c0,.73.85,1.45,2.54,2.17a15.09,15.09,0,0,1,4.71,2.77,4.78,4.78,0,0,1,1.21,3.42,6,6,0,0,1-2,4.61,6.94,6.94,0,0,1-4.77,1.75q-4.78,0-6.78-4.66l3.75-1.74a8,8,0,0,0,1.2,1.74,2.72,2.72,0,0,0,1.91.74c1.48,0,2.23-.68,2.23-2,0-.78-.58-1.51-1.72-2.19-.45-.22-.89-.44-1.33-.64l-1.35-.65a8.16,8.16,0,0,1-2.69-1.87,4.61,4.61,0,0,1-1-3.07,5.44,5.44,0,0,1,1.7-4.1,6,6,0,0,1,4.22-1.62C207.27,213.5,209.08,214.75,210.27,217.27Z"/><path class="cls-2" d="M215.58,206.11a2.71,2.71,0,0,1,.84-2,2.74,2.74,0,0,1,2-.84,2.77,2.77,0,0,1,2,.84,2.71,2.71,0,0,1,.84,2,2.76,2.76,0,0,1-.84,2,2.7,2.7,0,0,1-2,.84,2.87,2.87,0,0,1-2.87-2.89Zm5.06,7.91v19h-4.4V214Z"/><path class="cls-2" d="M231.54,218.12v14.93h-4.4V218.12h-1.87V214h1.87v-7h4.4v7H235v4.1Z"/><path class="cls-2" d="M256.42,224.57H242.79a5.72,5.72,0,0,0,1.52,3.73,4.66,4.66,0,0,0,3.46,1.37,4.5,4.5,0,0,0,2.71-.78,11.3,11.3,0,0,0,2.4-2.89l3.71,2.07a14.88,14.88,0,0,1-1.81,2.51,9.92,9.92,0,0,1-2.05,1.72,8.53,8.53,0,0,1-2.37,1,11.35,11.35,0,0,1-2.75.31,9,9,0,0,1-6.84-2.73,10.25,10.25,0,0,1-2.57-7.3,10.53,10.53,0,0,1,2.5-7.31,9.54,9.54,0,0,1,13.32-.08,10.56,10.56,0,0,1,2.42,7.37ZM251.91,221a4.22,4.22,0,0,0-4.44-3.52,4.37,4.37,0,0,0-1.5.25,4.09,4.09,0,0,0-1.28.7,4.56,4.56,0,0,0-1,1.1,5.13,5.13,0,0,0-.62,1.47Z"/><path class="cls-2" d="M289.19,200.06h4.41v33h-4.41v-2a8.2,8.2,0,0,1-5.88,2.53,8.36,8.36,0,0,1-6.48-2.85,10.58,10.58,0,0,1-2.56-7.26,10.23,10.23,0,0,1,2.56-7.11,8.22,8.22,0,0,1,12.36-.14Zm-10.43,23.42a6.66,6.66,0,0,0,1.46,4.45,4.81,4.81,0,0,0,3.79,1.74A5,5,0,0,0,288,228a7.25,7.25,0,0,0,0-8.83,5,5,0,0,0-3.91-1.7,4.85,4.85,0,0,0-3.79,1.72A6.35,6.35,0,0,0,278.76,223.48Z"/><path class="cls-2" d="M317.27,224.57H303.64a5.78,5.78,0,0,0,1.53,3.73,4.63,4.63,0,0,0,3.45,1.37,4.51,4.51,0,0,0,2.72-.78,11.3,11.3,0,0,0,2.4-2.89l3.71,2.07a14.9,14.9,0,0,1-1.82,2.51,9.66,9.66,0,0,1-2.05,1.72,8.47,8.47,0,0,1-2.36,1,11.41,11.41,0,0,1-2.75.31,9,9,0,0,1-6.84-2.73,10.25,10.25,0,0,1-2.58-7.3,10.53,10.53,0,0,1,2.5-7.31,9.54,9.54,0,0,1,13.32-.08c1.62,1.77,2.42,4.23,2.42,7.37ZM312.76,221a4.21,4.21,0,0,0-4.43-3.52,4.29,4.29,0,0,0-1.5.25,4.09,4.09,0,0,0-1.28.7,4.18,4.18,0,0,0-1,1.1,5.44,5.44,0,0,0-.63,1.47Z"/><path class="cls-2" d="M333.93,217.27l-3.63,1.93c-.57-1.17-1.28-1.76-2.13-1.76a1.48,1.48,0,0,0-1,.4,1.34,1.34,0,0,0-.43,1c0,.73.84,1.45,2.54,2.17a14.89,14.89,0,0,1,4.7,2.77,4.74,4.74,0,0,1,1.22,3.42,6,6,0,0,1-2,4.61,6.9,6.9,0,0,1-4.76,1.75q-4.78,0-6.78-4.66l3.75-1.74a8.42,8.42,0,0,0,1.19,1.74,2.75,2.75,0,0,0,1.92.74c1.48,0,2.22-.68,2.22-2,0-.78-.57-1.51-1.72-2.19-.44-.22-.88-.44-1.32-.64l-1.35-.65a8.22,8.22,0,0,1-2.7-1.87,4.66,4.66,0,0,1-1-3.07,5.4,5.4,0,0,1,1.7-4.1,6,6,0,0,1,4.21-1.62C330.94,213.5,332.75,214.75,333.93,217.27Z"/><path class="cls-2" d="M339.25,206.11a2.71,2.71,0,0,1,.84-2,2.74,2.74,0,0,1,2-.84,2.77,2.77,0,0,1,2,.84,2.71,2.71,0,0,1,.84,2,2.76,2.76,0,0,1-.84,2,2.71,2.71,0,0,1-2,.84,2.76,2.76,0,0,1-2-.84A2.78,2.78,0,0,1,339.25,206.11ZM344.3,214v19h-4.39V214Z"/><path class="cls-2" d="M369.07,232.6q0,1.35-.09,2.37a18.25,18.25,0,0,1-.24,1.81,8.15,8.15,0,0,1-1.84,3.69,8.9,8.9,0,0,1-7.09,3,9.5,9.5,0,0,1-6.27-2.05,8.41,8.41,0,0,1-2.93-5.84H355a5.08,5.08,0,0,0,.84,2.17,4.72,4.72,0,0,0,4,1.77c3.22,0,4.82-2,4.82-5.92v-2.65a8.19,8.19,0,0,1-6,2.67,8.1,8.1,0,0,1-6.37-2.81,10.46,10.46,0,0,1-2.5-7.13,11,11,0,0,1,2.33-7.07,8,8,0,0,1,6.6-3.08,7.66,7.66,0,0,1,6,2.67V214h4.4Zm-4.22-9a6.41,6.41,0,0,0-1.48-4.43,4.94,4.94,0,0,0-3.85-1.7,4.74,4.74,0,0,0-3.95,1.86,6.73,6.73,0,0,0-1.31,4.29,6.66,6.66,0,0,0,1.31,4.26,5.21,5.21,0,0,0,7.93,0A6.51,6.51,0,0,0,364.85,223.57Z"/><path class="cls-2" d="M375.42,214h4.41v1.76a7.22,7.22,0,0,1,5.2-2.28,6.54,6.54,0,0,1,5.17,2.09q1.6,1.77,1.6,5.8v11.66h-4.41V222.42a7,7,0,0,0-.78-3.88,3.17,3.17,0,0,0-2.78-1.1,3.38,3.38,0,0,0-3.1,1.45q-.9,1.43-.9,5v9.18h-4.41Z"/><path class="cls-2" d="M426.1,214.84v5.84a10.73,10.73,0,0,0-2.7-2.52,5.33,5.33,0,0,0-2.75-.7,5.42,5.42,0,0,0-4.12,1.74,6.12,6.12,0,0,0-1.64,4.36,6.26,6.26,0,0,0,1.58,4.39,5.33,5.33,0,0,0,4.08,1.72,5.56,5.56,0,0,0,2.8-.69,11.19,11.19,0,0,0,2.75-2.57v5.8a11.61,11.61,0,0,1-5.35,1.38,10.27,10.27,0,0,1-7.39-2.85,9.54,9.54,0,0,1-3-7.13,9.63,9.63,0,0,1,3-7.18,10.17,10.17,0,0,1,7.39-2.93A11.13,11.13,0,0,1,426.1,214.84Z"/><path class="cls-2" d="M430.26,223.4a9.42,9.42,0,0,1,2.95-7,10.4,10.4,0,0,1,14.41,0,9.69,9.69,0,0,1,2.93,7.15,9.59,9.59,0,0,1-2.95,7.16,10.06,10.06,0,0,1-7.28,2.87,9.65,9.65,0,0,1-7.17-2.93A9.81,9.81,0,0,1,430.26,223.4Zm4.49.08a6.44,6.44,0,0,0,1.52,4.51,5.93,5.93,0,0,0,8.25,0,7.16,7.16,0,0,0,0-8.87,5.86,5.86,0,0,0-8.21,0A6.13,6.13,0,0,0,434.75,223.48Z"/><path class="cls-2" d="M456,214h4.39v1.76a9.61,9.61,0,0,1,2.17-1.8,5.34,5.34,0,0,1,2.4-.48,5.82,5.82,0,0,1,5.1,2.81,6.59,6.59,0,0,1,5.61-2.81q6.42,0,6.42,7.79v11.76h-4.41V222.48a8.23,8.23,0,0,0-.66-3.87,2.41,2.41,0,0,0-2.25-1.15,2.88,2.88,0,0,0-2.65,1.37,8.81,8.81,0,0,0-.83,4.39v9.83h-4.41V222.54q0-5.08-2.93-5.08a2.94,2.94,0,0,0-2.71,1.39,8.69,8.69,0,0,0-.85,4.37v9.83H456Z"/><path class="cls-2" d="M493.32,243.4h-4.39V214h4.39v2.07a8.13,8.13,0,0,1,5.9-2.59,8.23,8.23,0,0,1,6.47,2.89,10.46,10.46,0,0,1,2.57,7.24,10.3,10.3,0,0,1-2.55,7.13,8.35,8.35,0,0,1-12.39.16Zm10.45-19.75a6.57,6.57,0,0,0-1.48-4.45,4.81,4.81,0,0,0-3.79-1.74,5,5,0,0,0-3.93,1.68,6.38,6.38,0,0,0-1.5,4.42,6.51,6.51,0,0,0,1.5,4.41,5,5,0,0,0,3.91,1.7,4.76,4.76,0,0,0,3.77-1.72A6.28,6.28,0,0,0,503.77,223.65Z"/><path class="cls-2" d="M527.74,214h4.41v19h-4.41v-2a8.46,8.46,0,0,1-12.37-.32,10.63,10.63,0,0,1-2.56-7.26,10.31,10.31,0,0,1,2.56-7.13,8.26,8.26,0,0,1,6.41-2.85,8.11,8.11,0,0,1,6,2.73Zm-10.43,9.46a6.61,6.61,0,0,0,1.46,4.45,4.8,4.8,0,0,0,3.79,1.74,5.06,5.06,0,0,0,4-1.68,7.25,7.25,0,0,0,0-8.83,5,5,0,0,0-3.91-1.7,4.85,4.85,0,0,0-3.79,1.72A6.35,6.35,0,0,0,517.31,223.48Z"/><path class="cls-2" d="M538.5,214h4.41v1.76a7.22,7.22,0,0,1,5.2-2.28,6.52,6.52,0,0,1,5.17,2.09q1.61,1.77,1.6,5.8v11.66h-4.41V222.42a7,7,0,0,0-.78-3.88,3.15,3.15,0,0,0-2.77-1.1,3.38,3.38,0,0,0-3.11,1.45q-.9,1.43-.9,5v9.18H538.5Z"/><path class="cls-2" d="M566.58,229.51,558,214h5.1L569,225,574.38,214h5L564.18,243.4h-5Z"/></g></g></svg>